<?xml version="1.0" standalone="no"?>
<!DOCTYPE svg PUBLIC "-//W3C//DTD SVG 20010904//EN"
 "http://www.w3.org/TR/2001/REC-SVG-20010904/DTD/svg10.dtd">
<svg version="1.0" xmlns="http://www.w3.org/2000/svg"
 width="412.000000pt" height="388.000000pt" viewBox="0 0 412.000000 388.000000"
 preserveAspectRatio="xMidYMid meet">

<g transform="translate(0.000000,388.000000) scale(0.100000,-0.100000)"
fill="#000000" stroke="none">
<path d="M0 1940 l0 -1940 2060 0 2060 0 0 1940 0 1940 -2060 0 -2060 0 0
-1940z m2164 1468 c-16 -18 -57 -62 -91 -98 -179 -189 -493 -611 -627 -842
-16 -27 -31 -48 -35 -48 -7 0 -13 31 -56 325 -37 253 -55 396 -55 437 0 36 0
36 108 91 221 114 419 163 656 166 l130 1 -30 -32z m331 -15 c263 -67 468
-186 676 -393 222 -221 351 -458 416 -760 26 -122 26 -478 0 -600 -132 -618
-617 -1083 -1235 -1186 -119 -19 -276 -27 -341 -17 -52 8 -54 9 -87 68 -126
223 -231 520 -324 920 -17 72 -35 148 -40 170 -13 52 -52 253 -85 435 -15 80
-30 163 -35 184 -8 38 -5 45 82 190 130 216 329 499 453 642 6 6 26 31 45 55
51 64 104 122 209 231 109 112 84 107 266 61z m-1225 -258 c0 -19 7 -83 15
-142 8 -59 20 -144 26 -188 9 -69 50 -337 64 -417 3 -21 -16 -68 -73 -180 -43
-84 -95 -193 -115 -241 -77 -186 -170 -494 -198 -656 -11 -65 -49 -310 -49
-319 -1 -11 -38 38 -96 126 -248 371 -311 862 -168 1298 68 209 206 430 364
586 97 96 207 181 221 172 5 -3 9 -21 9 -39z m175 -1136 c48 -259 84 -437 95
-479 6 -19 22 -84 36 -145 42 -180 105 -388 179 -590 14 -38 53 -126 88 -195
34 -69 63 -129 66 -134 6 -14 -134 11 -245 44 -199 59 -462 211 -586 337 l-48
48 15 122 c36 308 99 575 196 830 44 116 158 358 165 351 2 -3 20 -88 39 -189z"/>
<path d="M1449 2921 c-38 -39 -38 -74 1 -113 26 -25 36 -29 63 -24 71 14 101
95 51 141 -37 34 -78 33 -115 -4z"/>
<path d="M1050 2715 c-7 -8 -10 -25 -6 -39 11 -45 71 -45 82 0 8 30 -11 54
-41 54 -12 0 -28 -7 -35 -15z"/>
<path d="M1133 2450 c-28 -11 -63 -66 -63 -98 0 -14 15 -39 34 -58 43 -43 90
-46 135 -8 91 76 5 209 -106 164z"/>
<path d="M845 1610 c-15 -17 -16 -24 -7 -45 20 -43 82 -28 82 20 0 45 -44 59
-75 25z"/>
<path d="M1341 1972 c-13 -25 8 -56 35 -50 29 5 27 62 -3 66 -13 2 -26 -4 -32
-16z"/>
<path d="M1616 709 c-53 -42 -18 -128 46 -115 58 11 78 63 41 106 -29 35 -51
38 -87 9z"/>
</g>
</svg>
