<?xml version="1.0" standalone="no"?>
<!DOCTYPE svg PUBLIC "-//W3C//DTD SVG 20010904//EN"
 "http://www.w3.org/TR/2001/REC-SVG-20010904/DTD/svg10.dtd">
<svg version="1.0" xmlns="http://www.w3.org/2000/svg"
 width="396.000000pt" height="369.000000pt" viewBox="0 0 396.000000 369.000000"
 preserveAspectRatio="xMidYMid meet">

<g transform="translate(0.000000,369.000000) scale(0.100000,-0.100000)"
fill="#000000" stroke="none">
<path d="M0 1845 l0 -1845 1980 0 1980 0 0 1845 0 1845 -1980 0 -1980 0 0
-1845z m2046 1313 c-135 -152 -376 -477 -376 -507 0 -6 -4 -11 -9 -11 -12 0
-47 205 -65 383 -6 56 -6 57 26 77 103 63 265 107 402 109 l69 1 -47 -52z
m239 15 c251 -80 451 -272 534 -515 123 -355 8 -725 -295 -949 -120 -88 -265
-139 -434 -153 -123 -10 -137 -3 -181 84 -77 152 -192 573 -229 836 -14 93
-14 91 78 234 100 156 207 292 336 428 59 61 61 63 101 57 22 -4 63 -14 90
-22z m-691 -234 c8 -68 23 -170 32 -225 l17 -102 -58 -118 c-73 -151 -128
-316 -155 -469 -12 -66 -24 -131 -27 -145 l-5 -25 -29 35 c-40 48 -115 201
-136 280 -24 92 -24 330 0 420 23 85 85 215 135 282 55 73 197 206 208 195 2
-2 10 -59 18 -128z m71 -456 c53 -322 144 -656 224 -825 23 -47 41 -88 41 -91
0 -3 -17 -3 -37 0 -134 18 -296 96 -409 195 -30 26 -34 36 -34 77 0 105 55
348 111 490 48 121 81 191 90 191 4 0 11 -17 14 -37z m611 -1463 c18 -7 30 -7
39 0 18 15 23 4 26 -55 3 -41 0 -50 -14 -53 -12 -2 -17 3 -17 18 0 55 -96 95
-120 49 -16 -29 6 -51 74 -72 96 -31 131 -101 86 -174 -24 -40 -71 -54 -165
-49 l-70 3 0 53 c0 65 14 73 36 21 14 -32 24 -42 57 -52 35 -10 45 -10 67 5
46 30 33 54 -49 92 -84 38 -106 62 -106 114 0 51 21 83 60 97 44 15 62 16 96
3z m1263 -3 c6 -8 17 -31 25 -53 46 -126 100 -241 119 -256 21 -17 19 -18 -70
-18 -56 0 -93 4 -93 10 0 6 7 10 15 10 18 0 18 5 5 31 -8 15 -21 19 -59 19
-42 0 -50 -3 -54 -22 -4 -14 0 -26 11 -34 15 -12 10 -13 -35 -14 -29 0 -53 5
-53 10 0 6 7 10 15 10 17 0 26 18 91 185 25 66 48 123 51 128 6 11 19 9 32 -6z
m-3026 -39 c8 -24 21 -61 27 -82 l13 -39 12 29 c6 16 20 53 29 82 l18 52 74 0
c43 0 74 -4 74 -10 0 -5 -9 -10 -20 -10 -19 0 -20 -7 -20 -145 0 -120 3 -145
14 -145 8 0 18 -4 21 -10 4 -6 -27 -10 -84 -10 -54 0 -91 4 -91 10 0 6 9 10
20 10 19 0 20 7 20 118 l0 117 -44 -125 c-34 -99 -47 -126 -63 -128 -17 -2
-23 9 -41 71 -12 40 -28 89 -36 108 -15 33 -15 32 -16 -62 0 -91 1 -97 23
-104 21 -8 21 -8 -5 -12 -15 -2 -42 -2 -60 0 -30 4 -31 5 -10 12 21 7 22 11
22 151 0 137 -1 144 -20 144 -11 0 -20 5 -20 10 0 6 31 10 74 10 l73 0 16 -42z
m615 -15 c2 -42 0 -53 -12 -53 -9 0 -18 11 -22 24 -8 35 -34 54 -82 62 l-42 7
0 -62 c0 -55 2 -61 21 -61 14 0 24 10 32 30 21 56 37 36 37 -45 0 -81 -16
-101 -37 -45 -8 20 -18 30 -32 30 -19 0 -21 -6 -21 -70 l0 -70 43 0 c45 0 77
19 96 58 19 36 31 25 31 -28 l0 -50 -155 0 c-97 0 -155 4 -155 10 0 6 9 10 20
10 19 0 20 7 20 145 0 138 -1 145 -20 145 -11 0 -20 5 -20 10 0 7 51 10 148 8
l147 -3 3 -52z m357 34 c47 -26 85 -92 85 -147 0 -49 -38 -121 -76 -143 -27
-15 -51 -17 -160 -14 -83 2 -121 6 -106 11 21 8 22 12 22 152 0 137 -1 144
-20 144 -11 0 -20 5 -20 10 0 6 46 10 118 10 102 0 122 -3 157 -23z m335 13
c0 -5 -7 -10 -15 -10 -13 0 -15 -22 -15 -141 0 -123 2 -144 18 -155 14 -11 3
-13 -76 -14 -60 0 -91 4 -87 10 3 6 13 10 21 10 11 0 14 25 14 145 0 138 -1
145 -20 145 -11 0 -20 5 -20 10 0 6 37 10 90 10 53 0 90 -4 90 -10z m910 -45
c0 -63 -13 -71 -34 -21 -17 40 -21 43 -74 52 l-42 7 0 -62 c0 -55 2 -61 21
-61 14 0 24 10 32 30 19 49 27 35 27 -45 0 -79 -11 -96 -29 -45 -7 20 -17 30
-30 30 -19 0 -21 -6 -21 -70 l0 -70 39 0 c42 0 101 39 101 66 0 8 7 14 15 14
11 0 15 -12 15 -50 l0 -50 -161 0 c-104 0 -158 3 -154 10 3 6 13 10 21 10 11
0 14 25 14 145 0 138 -1 145 -20 145 -11 0 -20 5 -20 10 0 6 57 10 150 10
l150 0 0 -55z m230 46 c0 -5 -5 -11 -11 -13 -7 -2 1 -34 22 -87 l33 -83 16 44
c15 40 15 46 -1 83 -10 22 -23 41 -28 43 -6 2 -11 8 -11 13 0 12 157 12 165
-1 3 -5 -1 -10 -9 -10 -22 0 -21 -6 17 -92 l33 -75 31 83 c29 79 29 84 11 84
-10 0 -16 5 -13 10 8 13 105 13 105 1 0 -5 -10 -11 -21 -13 -21 -3 -44 -55
-112 -255 -30 -89 -45 -84 -92 27 -21 49 -41 88 -45 85 -4 -2 -17 -35 -30 -72
-29 -86 -37 -103 -54 -103 -9 0 -41 64 -82 160 -39 94 -73 160 -81 160 -7 0
-13 5 -13 10 0 6 35 10 85 10 47 0 85 -4 85 -9z m-920 -206 c0 -24 -2 -25 -70
-25 -68 0 -70 1 -70 25 0 24 2 25 70 25 68 0 70 -1 70 -25z"/>
<path d="M1681 2916 c-7 -8 -11 -25 -9 -38 2 -18 9 -23 32 -23 36 0 56 27 40
53 -14 22 -48 27 -63 8z"/>
<path d="M1462 2793 c2 -10 10 -18 18 -18 22 0 18 29 -3 33 -14 3 -18 -1 -15
-15z"/>
<path d="M1508 2659 c-32 -18 -41 -48 -23 -75 19 -29 55 -32 78 -6 22 25 21
48 -3 72 -23 23 -28 24 -52 9z"/>
<path d="M1351 2197 c-9 -11 -8 -17 4 -27 12 -10 16 -9 21 5 9 23 -10 40 -25
22z"/>
<path d="M1626 2403 c-11 -11 -6 -23 9 -23 8 0 15 4 15 9 0 13 -16 22 -24 14z"/>
<path d="M1767 1704 c-13 -13 -7 -52 9 -58 22 -9 46 13 42 38 -3 21 -37 34
-51 20z"/>
<path d="M3468 834 c-16 -39 -16 -39 9 -42 35 -5 38 2 21 44 l-15 37 -15 -39z"/>
<path d="M1360 856 l0 -146 34 0 c53 0 61 18 61 141 0 120 -6 134 -63 145
l-32 7 0 -147z"/>
</g>
</svg>
